<svg id="Capa_1" enable-background="new 0 0 512 512" height="512" viewBox="0 0 512 512" width="512" xmlns="http://www.w3.org/2000/svg"><g><g><g><path d="m487.231 198.27v266.35c0 22.03-17.85 39.88-39.87 39.88h-327.6c-18.82 0-34.59-13.04-38.78-30.58l-.16-22.8-.93-135.78v-267.96c0-22.03 17.85-39.88 39.87-39.88h176.7c15.88 0 67.31 43.85 112.77 90.03 41.48 42.15 78 86.24 78 100.74z" fill="#ddeafb"/><path d="m487.231 198.27v97.57c0-.11-.01-.22-.01-.34-3-119.72-100.52-125.26-132.41-157.15l54.42-40.82c41.48 42.15 78 86.24 78 100.74z" fill="#cbe2ff"/><path d="m296.456 7.5h-97.57c.11 0 .22.01.34.01 119.72 3 125.26 100.52 157.15 132.41l40.82-54.42c-42.15-41.48-86.24-78-100.74-78z" fill="#cbe2ff"/><path d="m487.231 198.276v16.868c0-35.514-28.798-64.312-64.312-64.312h-39.143c-22.019 0-39.877-17.858-39.877-39.877v-39.143c0-35.514-28.798-64.312-64.312-64.312h16.868c30.373 0 59.512 12.068 80.989 33.545l76.242 76.242c21.476 21.476 33.545 50.615 33.545 80.989z" fill="#bed8fb"/></g><path d="m84.282 388.909c19.968 15.447 43.816 26.064 69.718 30.001 2.955.447 5.942.812 8.953 1.08 4.262.39 8.572.593 12.922.609.07 0 .14 0 .211.001 3.562.007 4.343-4.982.974-6.137-4.859-1.666-9.569-3.65-14.107-5.926-37.331-18.743-62.957-57.389-62.957-102 0-50.984 33.451-94.151 79.597-108.762l-2.029 5.796c-.341.966-.609 1.924-.812 2.874-4.099 19.043 17.801 34.279 34.465 22.314l88.347-63.403c12.492-8.969 10.593-28.093-3.417-34.433l-99.086-44.799c-19.619-8.88-39.019 12.777-28.045 31.308-79.49 3.838-142.942 68.872-144.224 149.029-.78 49.418 22.809 94.079 59.49 122.448z" fill="#dd636e"/><path d="m84.282 388.909c19.968 15.447 43.816 26.064 69.718 30.001 2.955.447 5.942.812 8.953 1.08 4.262.39 8.572.593 12.922.609.07 0 .14 0 .211.001 3.562.007 4.343-4.982.974-6.137-4.859-1.666-9.569-3.65-14.107-5.926-37.331-18.743-62.957-57.389-62.957-102 0-50.984 33.451-94.151 79.597-108.762-1.937-11.556-13.687-18.751-24.83-15.129-48.322 15.708-155.566 67.852-70.481 206.263z" fill="#da4a54"/></g><g><path d="m494.73 198.276c0-32.598-12.693-63.244-35.741-86.292l-76.242-76.242c-22.885-22.885-53.923-35.742-86.287-35.742h-.002-.002-176.698c-26.162 0-47.37 21.208-47.37 47.37v101.149c-10.562 9.142-19.954 19.652-27.784 31.201-2.158 3.183-1.806 7.569 1.097 10.091 3.471 3.015 8.672 2.247 11.163-1.443 25.311-37.489 67.277-61.19 112.296-63.435 1.841-.092 3.644-.746 4.98-2.015 2.646-2.512 3.075-6.364 1.332-9.308-4.003-6.762-1.752-13.274 1.689-17.114 3.437-3.835 9.656-6.78 16.807-3.542l99.087 44.799c4.111 1.86 6.832 5.65 7.277 10.138.445 4.487-1.476 8.736-5.137 11.365l-88.351 63.411c-5.071 3.64-11.196 3.785-16.383.385-4.07-2.667-7.881-8.017-6.363-15.069.13-.621.31-1.252.55-1.936l1.957-5.593c.749-2.14.621-4.536-.537-6.485-1.834-3.084-5.466-4.384-8.733-3.35-24.438 7.737-45.483 22.75-60.86 43.416-15.686 21.082-23.977 46.153-23.977 72.505 0 43.259 22.481 82.488 59.241 104.397-22.711-4.027-44.381-13.654-62.872-27.96-36.137-27.95-57.289-71.464-56.58-116.396.278-17.197 3.549-33.962 9.72-49.834 1.477-3.8-.172-8.251-3.916-9.863-3.915-1.686-8.418.217-9.958 4.155-6.887 17.616-10.535 36.221-10.844 55.303-.738 46.742 19.911 92.06 55.603 122.929l.552 79.778c.038 5.485 1.154 10.936 3.493 15.898 7.691 16.31 24.152 27.053 42.821 27.053h327.6c26.12 0 47.37-21.254 47.37-47.38zm-122.589-151.928 76.242 76.242c12.184 12.184 21.068 26.787 26.205 42.729-13.07-13.549-31.401-21.987-51.668-21.987h-39.143c-17.853 0-32.377-14.524-32.377-32.377v-39.143c0-20.268-8.438-38.599-21.987-51.669 15.94 5.137 30.544 14.021 42.728 26.205zm75.207 450.652h-327.59c-.462 0-.921-.01-1.379-.029-16.774-.699-29.845-14.882-29.961-31.671l-.446-64.464c19.537 13.213 41.778 21.971 64.899 25.489 3.112.473 6.281.854 9.403 1.134 4.419.404 8.984.62 13.603.641h.19.03c3.952 0 7.686-2.132 9.431-5.678 3.035-6.167-.047-12.994-6.047-15.059-4.446-1.519-8.875-3.379-13.158-5.525-36.285-18.225-58.826-54.741-58.826-95.298 0-23.101 7.266-45.077 21.011-63.551 10.48-14.085 24.476-25.469 40.275-32.932-.338 10.104 4.62 19.751 13.456 25.542 10.42 6.829 23.2 6.542 33.352-.746l88.352-63.411c8.066-5.793 12.297-15.151 11.316-25.032-.981-9.883-6.97-18.228-16.021-22.324l-99.086-44.798c-11.974-5.422-25.383-2.597-34.161 7.196-6.181 6.896-8.678 15.698-7.28 24.252-21.557 2.417-42.589 9.264-61.359 20.032-3.398 1.95-6.717 4.042-9.964 6.242v-89.63c0-17.883 14.497-32.38 32.38-32.38h159.819c31.376 0 56.812 25.436 56.812 56.812v39.143c0 26.166 21.211 47.377 47.377 47.377h39.143c31.287 0 56.746 25.424 56.809 56.697v249.591c0 17.883-14.497 32.38-32.38 32.38z"/><path d="m159.186 272.47h272.688c4.142 0 7.5-3.358 7.5-7.5s-3.358-7.5-7.5-7.5h-272.688c-4.142 0-7.5 3.358-7.5 7.5s3.358 7.5 7.5 7.5z"/><path d="m159.186 312.364h272.688c4.142 0 7.5-3.358 7.5-7.5s-3.358-7.5-7.5-7.5h-272.688c-4.142 0-7.5 3.358-7.5 7.5s3.358 7.5 7.5 7.5z"/><path d="m431.877 337.26h-31.69c-4.142 0-7.5 3.358-7.5 7.5s3.358 7.5 7.5 7.5h31.69c4.142 0 7.5-3.358 7.5-7.5s-3.357-7.5-7.5-7.5z"/><path d="m366.627 337.26h-207.44c-4.142 0-7.5 3.358-7.5 7.5s3.358 7.5 7.5 7.5h207.44c4.142 0 7.5-3.358 7.5-7.5s-3.357-7.5-7.5-7.5z"/><path d="m259.357 377.154h-100.171c-4.142 0-7.5 3.358-7.5 7.5s3.358 7.5 7.5 7.5h100.171c4.142 0 7.5-3.358 7.5-7.5s-3.358-7.5-7.5-7.5z"/></g></g></svg>