<svg id="Capa_1" enable-background="new 0 0 512 512" height="512" viewBox="0 0 512 512" width="512" xmlns="http://www.w3.org/2000/svg"><g><g><g><path d="m503.999 198.268v266.347c0 22.03-17.85 39.88-39.869 39.88h-327.597c-18.82 0-34.59-13.04-38.78-30.58l-.16-22.8-.93-135.778v-267.958c0-22.03 17.85-39.88 39.87-39.88h176.698c15.88 0 67.309 43.849 112.768 90.029 41.48 42.15 78 86.24 78 100.74z" fill="#ddeafb"/><path d="m503.999 198.268v97.569c0-.11-.01-.22-.01-.34-3-119.719-100.519-125.259-132.409-157.148l54.42-40.82c41.479 42.149 77.999 86.239 77.999 100.739z" fill="#cbe2ff"/><path d="m313.226 7.5h-97.569c.11 0 .22.01.34.01 119.719 3 125.259 100.519 157.148 132.409l40.82-54.419c-42.15-41.481-86.239-78-100.739-78z" fill="#cbe2ff"/><path d="m503.998 198.273v16.868c0-35.513-28.798-64.311-64.311-64.311h-39.142c-22.019 0-39.877-17.858-39.877-39.877v-39.142c0-35.513-28.798-64.311-64.311-64.311h16.868c30.373 0 59.512 12.068 80.988 33.544l76.241 76.241c21.476 21.477 33.544 50.615 33.544 80.988z" fill="#bed8fb"/></g><g><circle cx="131.995" cy="380.503" fill="#78d0b1" r="123.991"/><path d="m77.366 468.178c19.998 19.998 45.131 31.734 71.146 35.209-36.982 4.951-75.769-6.786-104.192-35.209-48.422-48.422-48.422-126.927 0-175.349 28.424-28.424 67.21-40.16 104.192-35.209-26.015 3.475-51.148 15.211-71.146 35.209-48.421 48.422-48.421 126.927 0 175.349z" fill="#61aab7"/></g></g><g><path d="m435.781 225.497h-272.685c-4.142 0-7.5 3.358-7.5 7.5s3.358 7.5 7.5 7.5h272.686c4.143 0 7.5-3.358 7.5-7.5s-3.358-7.5-7.501-7.5z"/><path d="m435.781 265.392h-193.763c-4.142 0-7.5 3.358-7.5 7.5s3.358 7.5 7.5 7.5h193.763c4.143 0 7.5-3.358 7.5-7.5s-3.357-7.5-7.5-7.5z"/><path d="m435.781 305.286h-167.825c-4.143 0-7.5 3.358-7.5 7.5s3.357 7.5 7.5 7.5h167.825c4.143 0 7.5-3.358 7.5-7.5s-3.357-7.5-7.5-7.5z"/><path d="m312.848 345.181h-33.918c-4.143 0-7.5 3.358-7.5 7.5s3.357 7.5 7.5 7.5h33.919c4.143 0 7.5-3.358 7.5-7.5-.001-4.143-3.358-7.5-7.501-7.5z"/><path d="m163.096 129.845h100.17c4.143 0 7.5-3.358 7.5-7.5s-3.357-7.5-7.5-7.5h-100.17c-4.142 0-7.5 3.358-7.5 7.5s3.358 7.5 7.5 7.5z"/><path d="m185.43 318.171c-3.697-1.867-8.209-.382-10.075 3.316l-56.292 111.523-44.433-44.432c-2.929-2.929-7.678-2.929-10.606 0-2.929 2.929-2.929 7.678 0 10.606l51.761 51.761c1.417 1.417 3.33 2.197 5.303 2.197.395 0 .792-.031 1.188-.095 2.375-.381 4.424-1.878 5.508-4.026l60.963-120.775c1.866-3.698.381-8.209-3.317-10.075z"/><path d="m511.498 198.278c0-32.607-12.695-63.253-35.746-86.291l-76.239-76.25c-23.044-23.046-53.691-35.737-86.292-35.737h-176.698c-26.12 0-47.37 21.254-47.37 47.379v208.826c-18.327 6.285-35.534 16.72-50.132 31.318-24.84 24.834-38.52 57.854-38.52 92.977s13.68 68.143 38.519 92.977c22.643 22.648 52.694 36.235 84.617 38.258 2.793.177 5.579.265 8.362.265.933 0 332.119-.006 332.119-.006 26.12 0 47.37-21.254 47.37-47.379zm-47.379 298.716h-271.092c6.474-3.392 12.689-7.329 18.562-11.806 3.294-2.511 3.929-7.217 1.417-10.511-2.512-3.295-7.218-3.928-10.511-1.417-46.096 35.139-111.814 30.674-152.868-10.389-22.006-22.002-34.125-51.255-34.125-82.371s12.119-60.369 34.126-82.371c45.419-45.419 119.322-45.42 164.742 0 41.053 41.054 45.515 106.768 10.379 152.858-2.511 3.294-1.877 8 1.417 10.511 3.293 2.511 8.001 1.876 10.511-1.417 19.122-25.083 28.549-56.318 26.545-87.95-2.023-31.921-15.606-61.969-38.246-84.608-32.743-32.743-78.601-44.57-120.822-35.489v-204.655c0-17.854 14.521-32.38 32.37-32.38h159.838c25.693 0 48.262 17.318 54.883 42.115 1.069 4.002 5.185 6.379 9.181 5.311 4.002-1.069 6.38-5.179 5.311-9.181-3.452-12.925-10.332-24.244-19.5-33.084 15.919 5.139 30.502 14.015 42.668 26.182l76.241 76.251c12.183 12.178 21.069 26.779 26.206 42.719-13.068-13.546-31.399-21.984-51.663-21.984h-39.15c-17.848 0-32.37-14.525-32.37-32.38v-22.36c0-4.142-3.357-7.5-7.5-7.5s-7.5 3.358-7.5 7.5v22.36c0 26.125 21.25 47.379 47.37 47.379h39.15c31.196 0 56.59 25.277 56.799 56.424v249.862c.001 17.856-14.521 32.381-32.369 32.381z"/></g></g></svg>