<svg height="456pt" viewBox="-12 0 456 456" width="456pt" xmlns="http://www.w3.org/2000/svg"><path d="m72 32c-35.347656 0-64 28.652344-64 64v288c0 35.347656 28.652344 64 64 64h288c35.347656 0 64-28.652344 64-64v-288c0-35.347656-28.652344-64-64-64zm-24 72v-32h48v32zm306.664062 136c0 76.582031-62.082031 138.664062-138.664062 138.664062s-138.664062-62.082031-138.664062-138.664062 62.082031-138.664062 138.664062-138.664062 138.664062 62.082031 138.664062 138.664062zm0 0" fill="#7a8c9a"/><path d="m8 176h416v128h-416zm0 0" fill="#8999a5"/><path d="m77.335938 240c0 76.582031 62.082031 138.664062 138.664062 138.664062s138.664062-62.082031 138.664062-138.664062-62.082031-138.664062-138.664062-138.664062-138.664062 62.082031-138.664062 138.664062zm34.664062 0c0-57.4375 46.5625-104 104-104-57.4375 0-104 46.5625-104 104zm0 0" fill="#ffddb0"/><path d="m280 8h72v24h-72zm0 0" fill="#64513a"/><path d="m48 72h48v32h-48zm0 0" fill="#ee8e9f"/><path d="m320 240c0 57.4375-46.5625 104-104 104s-104-46.5625-104-104 46.5625-104 104-104 104 46.5625 104 104zm0 0" fill="#c3e0f6"/><g fill="#202020"><path d="m360 24v-16c0-4.417969-3.582031-8-8-8h-72c-4.417969 0-8 3.582031-8 8v16h-200c-39.746094.046875-71.953125 32.253906-72 72v288c.046875 39.746094 32.253906 71.953125 72 72h288c39.746094-.046875 71.953125-32.253906 72-72v-288c-.046875-39.746094-32.253906-71.953125-72-72zm-72-8h56v8h-56zm-216 24h288c30.914062.035156 55.964844 25.085938 56 56v72h-72.367188c-25.921874-46.132812-74.71875-74.683594-127.632812-74.683594s-101.710938 28.550782-127.632812 74.683594h-72.367188v-72c.035156-30.914062 25.085938-55.964844 56-56zm144 69.335938c72.164062 0 130.664062 58.5 130.664062 130.664062s-58.5 130.664062-130.664062 130.664062-130.664062-58.5-130.664062-130.664062c.082031-72.128906 58.535156-130.582031 130.664062-130.664062zm200 274.664062c-.035156 30.914062-25.085938 55.964844-56 56h-288c-30.914062-.035156-55.964844-25.085938-56-56v-200h64.496094c-25.398438 61.328125-6.4375 132.066406 46.222656 172.472656 52.664062 40.410156 125.898438 40.410156 178.5625 0 52.660156-40.40625 71.621094-111.144531 46.222656-172.472656h64.496094zm0 0"/><path d="m216 144c4.417969 0 8-3.582031 8-8s-3.582031-8-8-8c-61.828125.066406-111.933594 50.171875-112 112 0 4.417969 3.582031 8 8 8s8-3.582031 8-8c.058594-52.996094 43.003906-95.941406 96-96zm0 0"/><path d="m48 112h48c4.417969 0 8-3.582031 8-8v-32c0-4.417969-3.582031-8-8-8h-48c-4.417969 0-8 3.582031-8 8v32c0 4.417969 3.582031 8 8 8zm8-32h32v16h-32zm0 0"/></g></svg>