<svg height="512" viewBox="0 0 64 64" width="512" xmlns="http://www.w3.org/2000/svg"><g id="Fill_Outlines" data-name="Fill Outlines"><g id="Color"><g><g><path d="m17 39h30v18h-30z" fill="#57b7eb"/><path d="m13 57h38a0 0 0 0 1 0 0v2a2 2 0 0 1 -2 2h-34a2 2 0 0 1 -2-2v-2a0 0 0 0 1 0 0z" fill="#d0d8da"/><path d="m22 43v-4h-5v18h30v-4h-15a10 10 0 0 1 -10-10z" fill="#4891d3"/><path d="m17 57h-4v2a2 2 0 0 0 2 2h34a2 2 0 0 0 2-2h-32a2 2 0 0 1 -2-2z" fill="#93999a"/></g><g><path d="m23 27 6 8 1 8h4l1-8 6-8z" fill="#f9e109"/><path d="m45 11h16v8h-16z" fill="#d0d8da"/><path d="m47 11h-2v8h16v-4h-10a4 4 0 0 1 -4-4z" fill="#93999a"/><path d="m45 3h16v8h-16z" fill="#d0d8da"/><path d="m47 3h-2v8h16v-4h-10a4 4 0 0 1 -4-4z" fill="#93999a"/><path d="m24 11h16v8h-16z" fill="#d0d8da"/><path d="m26 11h-2v8h16v-4h-10a4 4 0 0 1 -4-4z" fill="#93999a"/><path d="m24 3h16v8h-16z" fill="#d0d8da"/><path d="m26 3h-2v8h16v-4h-10a4 4 0 0 1 -4-4z" fill="#93999a"/><path d="m3 11h16v8h-16z" fill="#d0d8da"/><path d="m5 11h-2v8h16v-4h-10a4 4 0 0 1 -4-4z" fill="#93999a"/><path d="m3 3h16v8h-16z" fill="#d0d8da"/><path d="m5 3h-2v8h16v-4h-10a4 4 0 0 1 -4-4z" fill="#93999a"/><path d="m32.116 35.925a3.521 3.521 0 0 0 -.675-1.671l-5.441-7.254h-3l6 8 1 8h4l.523-4.181a3.5 3.5 0 0 1 -2.407-2.894z" fill="#fcbc04"/></g></g></g><g id="Outlines_copy" data-name="Outlines copy"><g fill="#1f2d51"><circle cx="57" cy="7" r="1"/><path d="m48 7a1 1 0 0 0 1 1h4a1 1 0 0 0 0-2h-4a1 1 0 0 0 -1 1z"/><path d="m61 2h-9a1 1 0 0 0 0 2h8v6h-14v-6h2a1 1 0 0 0 0-2h-3a1 1 0 0 0 -1 1v16a1 1 0 0 0 1 1h9v2h-21v-2h7a1 1 0 0 0 1-1v-16a1 1 0 0 0 -1-1h-9a1 1 0 0 0 0 2h8v6h-14v-6h2a1 1 0 0 0 0-2h-3a1 1 0 0 0 -1 1v16a1 1 0 0 0 1 1h7v2h-21v-2h9a1 1 0 0 0 1-1v-16a1 1 0 0 0 -1-1h-9a1 1 0 0 0 0 2h8v6h-14v-6h2a1 1 0 0 0 0-2h-3a1 1 0 0 0 -1 1v16a1 1 0 0 0 1 1h5v3a1 1 0 0 0 1 1h22v2h-8a1 1 0 0 0 -.8 1.6l5.841 7.788.967 7.736a1 1 0 0 0 .992.876h4a1 1 0 0 0 .992-.876l.967-7.736 5.841-7.788a1 1 0 0 0 -.8-1.6h-3a1 1 0 0 0 0 2h1l-4.8 6.4a1 1 0 0 0 -.192.476l-.891 7.124h-2.234l-.891-7.124a1 1 0 0 0 -.192-.476l-4.8-6.4h9a1 1 0 0 0 0-2h-1v-2h22a1 1 0 0 0 1-1v-3h5a1 1 0 0 0 1-1v-16a1 1 0 0 0 -1-1zm-36 10h14v6h-14zm-21 0h14v6h-14zm56 6h-14v-6h14z"/><circle cx="57" cy="15" r="1"/><path d="m49 16h4a1 1 0 0 0 0-2h-4a1 1 0 0 0 0 2z"/><circle cx="36" cy="15" r="1"/><path d="m33 15a1 1 0 0 0 -1-1h-4a1 1 0 0 0 0 2h4a1 1 0 0 0 1-1z"/><circle cx="15" cy="15" r="1"/><path d="m12 15a1 1 0 0 0 -1-1h-4a1 1 0 0 0 0 2h4a1 1 0 0 0 1-1z"/><circle cx="36" cy="7" r="1"/><path d="m27 7a1 1 0 0 0 1 1h4a1 1 0 0 0 0-2h-4a1 1 0 0 0 -1 1z"/><circle cx="15" cy="7" r="1"/><path d="m6 7a1 1 0 0 0 1 1h4a1 1 0 0 0 0-2h-4a1 1 0 0 0 -1 1z"/><path d="m35 46h-4a1 1 0 0 0 0 2h4a1 1 0 0 0 0-2z"/><path d="m39 52h4a1 1 0 0 0 0-2h-4a1 1 0 0 0 0 2z"/><circle cx="39" cy="47" r="1"/><circle cx="43" cy="47" r="1"/><circle cx="31" cy="51" r="1"/><circle cx="35" cy="51" r="1"/><path d="m25 52h2a1 1 0 0 0 0-2h-2a1 1 0 0 0 0 2z"/><circle cx="21" cy="51" r="1"/><path d="m24 47a1 1 0 0 0 -1-1h-2a1 1 0 0 0 0 2h2a1 1 0 0 0 1-1z"/><circle cx="27" cy="47" r="1"/><path d="m51 56h-3v-17a1 1 0 0 0 -1-1h-8.5a1 1 0 0 0 0 2h7.5v16h-28v-16h7.5a1 1 0 0 0 0-2h-8.5a1 1 0 0 0 -1 1v17h-3a1 1 0 0 0 -1 1v2a3 3 0 0 0 3 3h34a3 3 0 0 0 3-3v-2a1 1 0 0 0 -1-1zm-1 3a1 1 0 0 1 -1 1h-34a1 1 0 0 1 -1-1v-1h36z"/></g></g></g></svg>