<svg id="Layer_35" enable-background="new 0 0 64 64" height="512" viewBox="0 0 64 64" width="512" xmlns="http://www.w3.org/2000/svg"><path d="m39.78 14.67-1.27 3.81c-1.97-.95-4.18-1.48-6.51-1.48-8.28 0-15 6.72-15 15 0 1.23.15 2.43.43 3.57l-3.19 3.19c-.36-.95-.65-1.93-.86-2.94l-3.38-.82v-6l3.38-.82c.5-2.41 1.45-4.65 2.76-6.63l-1.82-2.99 4.24-4.24 2.99 1.82c1.98-1.31 4.22-2.26 6.63-2.76l.82-3.38h6l.82 3.38c1.38.29 2.71.72 3.96 1.29z" fill="#ffc729"/><path d="m46.46 36h4.12c-.5 2.34-1.44 4.52-2.72 6.45l1.82 2.98-4.24 4.25-2.99-1.82c-1.98 1.31-4.22 2.26-6.63 2.76l-.82 3.38h-6l-.82-3.38c-1.01-.21-1.99-.5-2.94-.86l3.19-3.19c1.14.28 2.34.43 3.57.43 6.9 0 12.71-4.66 14.46-11z" fill="#ffc729"/><path d="m19 34-1.57 1.57c-.28-1.14-.43-2.34-.43-3.57 0-8.28 6.72-15 15-15 2.33 0 4.54.53 6.51 1.48l-4.33 12.99c-.12.35-.18.72-.18 1.09 0 1.9 1.54 3.44 3.44 3.44h9.02c-1.75 6.34-7.56 11-14.46 11-1.23 0-2.43-.15-3.57-.43l1.57-1.57-2-2 5-5-7-7-5 5z" fill="#fcd770"/><path d="m61.82 31.47c.12.35.18.72.18 1.09 0 .95-.38 1.81-1.01 2.43-.62.63-1.48 1.01-2.43 1.01h-7.98-4.12-9.02c-1.9 0-3.44-1.54-3.44-3.44 0-.37.06-.74.18-1.09l4.33-12.99 1.27-3.81 2.96-8.88c.75-2.26 2.87-3.79 5.26-3.79 1.2 0 2.32.38 3.24 1.05.93.66 1.64 1.61 2.02 2.74z" fill="#ff826e"/><path d="m3.464 53.464h7.071v7.071h-7.071z" fill="#838f9b" transform="matrix(.707 -.707 .707 .707 -38.255 21.645)"/><path d="m20 55-8 2-5-5 2-8z" fill="#aab2bd"/><path d="m21 36 7 7 2 2-1.57 1.57-3.19 3.19-5.24 5.24-11-11 5.24-5.24 3.19-3.19 1.57-1.57z" fill="#ccd1d9"/><path d="m23.464 32.05h7.071v9.899h-7.071z" fill="#e6e9ed" transform="matrix(.707 -.707 .707 .707 -18.255 29.929)"/><path d="m15.964 40.257h7.071v8.485h-7.071z" fill="#b4dd7f" transform="matrix(.707 -.707 .707 .707 -25.755 26.822)"/><path d="m50 10v.93c0 .05 0 .09-.01.14l-.87 11.94c-.07.56-.55.99-1.12.99s-1.05-.43-1.12-.99l-.87-11.94c-.01-.05-.01-.09-.01-.14v-.93c0-.55.22-1.05.59-1.41.36-.37.86-.59 1.41-.59 1.1 0 2 .9 2 2z" fill="#ffeaa7"/><circle cx="48" cy="30" fill="#ffeaa7" r="2"/><path d="m48 7c-1.654 0-3 1.346-3 3v.927c0 .072.003.145.008.22l.882 11.977c.126 1.069 1.032 1.876 2.11 1.876s1.984-.807 2.114-1.92l.878-11.937c.005-.072.008-.144.008-.216v-.927c0-1.654-1.346-3-3-3zm.998 4-.874 11.891c-.015.125-.236.082-.243.043l-.877-11.931-.004-1.003c0-.552.449-1 1-1s1 .448 1 1z"/><path d="m48 27c-1.654 0-3 1.346-3 3s1.346 3 3 3 3-1.346 3-3-1.346-3-3-3zm0 4c-.551 0-1-.448-1-1s.449-1 1-1 1 .448 1 1-.449 1-1 1z"/><path d="m54.501 25.316 1.895 5.684h-1.396v2h4.171l-2.772-8.316z"/><path d="m53.45 20.946h2v2.108h-2z" transform="matrix(.949 -.316 .316 .949 -4.163 18.357)"/><path d="m62.772 31.153-8.558-25.674c-.894-2.679-3.391-4.479-6.214-4.479s-5.32 1.8-6.214 4.479l-2.623 7.87c-.824-.318-1.662-.601-2.519-.805l-.857-3.544h-7.574l-.857 3.543c-2.053.488-4.005 1.3-5.822 2.421l-3.12-1.905-5.356 5.355 1.905 3.12c-1.12 1.816-1.932 3.77-2.421 5.822l-3.542.857v7.574l3.543.856c.149.625.339 1.241.549 1.85l-4.995 4.994-2 8.001-5.511 5.512 6.414 6.414 5.511-5.511 8-2 4.995-4.996c.609.21 1.225.4 1.85.549l.857 3.544h7.574l.856-3.543c2.053-.488 4.006-1.3 5.822-2.421l3.12 1.905 5.356-5.356-1.905-3.119c1.054-1.709 1.819-3.546 2.314-5.466h7.208c2.45 0 4.442-1.992 4.442-4.441 0-.479-.077-.952-.228-1.406zm-25.331 5.847h7.634c-2.05 5.358-7.246 9-13.075 9-.501 0-1-.036-1.497-.089l.911-.911-2-2 5-5-8.414-8.414-5 5-2-2-.911.911c-.053-.497-.089-.996-.089-1.497 0-7.72 6.28-14 14-14 1.831 0 3.594.365 5.264 1.046l-4.036 12.108c-.151.453-.228.926-.228 1.405 0 2.449 1.992 4.441 4.441 4.441zm-27.027 7 8.586-8.586 9.586 9.586-8.586 8.586zm12-8 3.586-3.586 5.586 5.586-3.586 3.586zm-8.05-.382-.127-.622-3.237-.783v-4.426l3.237-.783.127-.622c.457-2.237 1.335-4.352 2.612-6.285l.35-.529-1.741-2.853 3.129-3.129 2.852 1.741.53-.351c1.933-1.277 4.047-2.156 6.284-2.612l.623-.127.784-3.237h4.426l.784 3.237.623.127c.993.202 1.961.517 2.909.889l-.631 1.894c-1.876-.747-3.85-1.147-5.898-1.147-8.822 0-16 7.178-16 16 0 1.094.118 2.183.337 3.249l-1.655 1.655c-.121-.426-.23-.855-.318-1.286zm-4.822 10.338 8.502 8.502-5.737 1.435-4.199-4.199zm-2.542 14.63-3.586-3.586 3.586-3.586 3.586 3.586zm40.023-18.683-.35.529 1.741 2.852-3.129 3.13-2.852-1.741-.53.351c-1.933 1.277-4.047 2.156-6.284 2.612l-.623.127-.783 3.237h-4.426l-.783-3.238-.623-.126c-.431-.088-.86-.197-1.285-.318l1.655-1.655c1.065.219 2.155.337 3.249.337 6.916 0 13.046-4.489 15.189-11h2.092c-.5 1.727-1.248 3.374-2.258 4.903zm11.536-6.903h-21.118c-1.346 0-2.441-1.095-2.441-2.441 0-.263.042-.522.125-.772l8.558-25.675c.621-1.862 2.356-3.112 4.317-3.112s3.696 1.25 4.316 3.111l8.558 25.675c.083.25.125.51.125.772.001 1.347-1.094 2.442-2.44 2.442z"/><path d="m19 37.586-6.414 6.414 7.414 7.414 6.414-6.414zm-3.586 6.414 3.586-3.586 4.586 4.586-3.586 3.586z"/><path d="m30.181 22.165c.596-.109 1.208-.165 1.819-.165v-2c-.731 0-1.465.066-2.181.198z"/><path d="m20.198 29.819 1.967.361c.62-3.374 2.996-6.248 6.199-7.499l-.728-1.863c-3.844 1.502-6.694 4.951-7.438 9.001z"/></svg>