<svg id="Capa_1" enable-background="new 0 0 512 512" height="512" viewBox="0 0 512 512" width="512" xmlns="http://www.w3.org/2000/svg"><g><g><g><path d="m485.408 198.27v266.35c0 22.03-17.85 39.88-39.87 39.88h-327.6c-18.82 0-34.59-13.04-38.78-30.58l-.16-22.8-.93-135.78v-267.96c0-22.03 17.85-39.88 39.87-39.88h176.7c15.88 0 67.31 43.85 112.77 90.03 41.48 42.15 78 86.24 78 100.74z" fill="#ddeafb"/><path d="m485.408 198.27v97.57c0-.11-.01-.22-.01-.34-3-119.72-100.52-125.26-132.41-157.15l54.42-40.82c41.48 42.15 78 86.24 78 100.74z" fill="#cbe2ff"/><path d="m294.633 7.5h-97.57c.11 0 .22.01.34.01 119.72 3 125.26 100.52 157.15 132.41l40.82-54.42c-42.15-41.48-86.24-78-100.74-78z" fill="#cbe2ff"/><path d="m485.407 198.276v16.868c0-35.514-28.798-64.312-64.312-64.312h-39.143c-22.019 0-39.877-17.858-39.877-39.877v-39.143c0-35.514-28.798-64.312-64.312-64.312h16.868c30.373 0 59.512 12.068 80.989 33.545l76.242 76.242c21.477 21.476 33.545 50.615 33.545 80.989z" fill="#bed8fb"/></g><g><path d="m99.528 88.207-16.842-32.027c-4.257-8.095-14.287-11.212-22.382-6.955l-24.841 13.063c-8.106 4.263-11.212 14.287-6.955 22.382l16.842 32.028" fill="#f1d333"/><path d="m55.83 51.577c-8.106 4.263-11.212 14.287-6.955 22.382l16.842 32.028-20.367 10.71-16.842-32.027c-4.257-8.095-1.151-18.119 6.955-22.382z" fill="#eab14d"/><path d="m201.736 229.824c57.577 109.491 82.404 209.756 55.44 223.935s-95.501-63.099-153.078-172.591c-29.194-55.517-49.97-108.67-59.84-149.413-2.683-11.074 2.541-22.545 12.626-27.848l25.566-13.444c10.085-5.303 22.496-3.106 30.1 5.38 27.974 31.222 59.991 78.464 89.186 133.981z" fill="#80b4fb"/><path d="m257.176 453.759c-26.964 14.179-95.501-63.099-153.078-172.591-29.195-55.518-49.97-108.666-59.847-149.414-2.677-11.071 2.551-22.544 12.632-27.846l9.264-4.872c-2.77 1.457-1.594 9.563 2.876 19.691 16.428 37.303 41.279 88.309 70.473 143.826 57.578 109.491 110.266 195.105 117.68 191.206z" fill="#5ea5ec"/></g></g><path d="m492.908 198.28c0-25.928-8.485-51.674-23.898-72.53-2.284-3.09-6.545-4.197-9.882-2.292-3.988 2.277-4.985 7.432-2.332 11.004 6.907 9.299 12.239 19.713 15.816 30.698-13.059-13.456-31.328-21.83-51.515-21.83h-39.15c-17.878 0-32.37-14.493-32.37-32.37v-39.15c0-20.265-8.439-38.597-21.985-51.666 15.94 5.136 30.541 14.018 42.722 26.199l64.38 64.38c2.929 2.929 7.678 2.929 10.606 0 2.929-2.929 2.929-7.677 0-10.606l-64.38-64.38c-23.044-23.045-53.691-35.737-86.292-35.737h-176.7c-23.623 0-43.26 17.386-46.799 40.037-4.761-.628-9.752.149-14.316 2.549l-24.398 12.83c-5.519 2.902-9.902 7.69-11.957 13.577-2.227 6.378-1.714 13.223 1.411 19.168l15.347 29.186c-1.419 5.153-1.574 10.7-.248 16.179 6.841 28.24 18.408 60.989 33.589 95.473v86.393l1.056 153.656c.038 5.486 1.154 10.937 3.493 15.899 7.692 16.31 24.153 27.053 42.822 27.053h327.6c26.12 0 47.37-21.255 47.37-47.38zm-458.396-124.015c.719-2.315 2.296-4.211 4.441-5.339l24.841-13.063c4.429-2.329 9.924-.62 12.253 3.807l11.129 21.163c-2.809.612-5.575 1.599-8.221 2.989l-25.555 13.448c-2.646 1.39-5.027 3.107-7.124 5.073l-11.13-21.164c-1.127-2.144-1.352-4.599-.634-6.914zm411.006 422.735h-327.59c-.462 0-.921-.01-1.379-.029-16.775-.699-29.845-14.883-29.96-31.672l-1.031-149.959v-54.119c3.813 7.78 7.781 15.601 11.9 23.436 1.834 3.491 3.744 7.07 5.836 10.93 1.957 3.611 6.451 5.251 10.118 3.401 3.792-1.914 5.229-6.565 3.219-10.273-2.119-3.908-4.047-7.517-5.895-11.036-27.998-53.252-49.018-105.701-59.189-147.683-1.871-7.737 1.759-15.734 8.833-19.449l25.556-13.447c7.073-3.715 15.721-2.175 21.026 3.745 28.827 32.175 60.128 79.219 88.138 132.466 11.631 22.118 22.064 44.13 31.022 65.326l-79.153 41.623c-4.546-7.138-9.176-14.662-13.881-22.591-2.098-3.535-6.643-5.014-10.241-3.027-3.722 2.056-4.983 6.763-2.83 10.393 25.647 43.253 53.029 80.612 77.101 105.193 21.325 21.777 39.046 32.731 52.882 32.731 1.037 0 2.051-.067 3.044-.19l2.387 5.223c1.26 2.757 3.981 4.384 6.826 4.384 1.253 0 2.531-.316 3.718-.99 3.416-1.941 4.621-6.3 2.988-9.874l-2.513-5.499c11.519-12.107 12.201-39.04 1.991-80.283-10.612-42.866-31.943-95.925-60.065-149.404-28.567-54.307-60.616-102.426-90.243-135.494-3.671-4.096-8.197-7.067-13.109-8.834 17.294-9.747 33.522-7.715 48.312 6.092 18.516 17.292 38.032 64.779 55.251 106.675 20.802 50.614 34.301 82.028 49.081 89.775 1.112.583 2.302.859 3.476.859 4.067 0 7.929-3.319 7.556-8.701-.164-2.364-1.774-4.311-3.9-5.358-10.687-5.263-27.508-46.19-42.339-82.277-18.672-45.431-37.979-92.409-58.888-111.936-25.062-23.397-49.906-17.059-65.745-8.268l-8.505-16.172c-1.035-1.969-2.311-3.73-3.766-5.277v-.03c0-17.883 14.497-32.38 32.38-32.38h159.83c31.375 0 56.81 25.435 56.81 56.81v39.14c0 26.167 21.213 47.38 47.38 47.38h39.14c31.19 0 56.581 25.267 56.8 56.406v249.884c.001 17.883-14.496 32.38-32.379 32.38zm-191.831-49.878c-11.744 6.177-49.518-20.655-98.499-94.236l76.658-40.312c9.53 23.91 17.025 46.53 22.034 66.763 10.943 44.202 6.735 64.141-.193 67.785z"/></g></svg>