<svg id="Capa_1" enable-background="new 0 0 512 512" height="512" viewBox="0 0 512 512" width="512" xmlns="http://www.w3.org/2000/svg"><g><g><g><path d="m504.5 198.27v266.35c0 22.03-17.85 39.88-39.87 39.88h-327.6c-18.82 0-34.59-13.04-38.78-30.58l-.16-22.8-.93-135.78v-267.96c0-22.03 17.85-39.88 39.87-39.88h176.7c15.88 0 67.31 43.85 112.77 90.03 41.48 42.15 78 86.24 78 100.74z" fill="#ddeafb"/><path d="m504.5 198.27v97.57c0-.11-.01-.22-.01-.34-3-119.72-100.52-125.26-132.41-157.15l54.42-40.82c41.48 42.15 78 86.24 78 100.74z" fill="#cbe2ff"/><path d="m313.725 7.5h-97.57c.11 0 .22.01.34.01 119.72 3 125.26 100.52 157.15 132.41l40.82-54.42c-42.15-41.48-86.24-78-100.74-78z" fill="#cbe2ff"/><path d="m504.5 198.276v16.868c0-35.514-28.798-64.312-64.312-64.312h-39.143c-22.019 0-39.877-17.858-39.877-39.877v-39.143c0-35.514-28.798-64.312-64.312-64.312h16.868c30.373 0 59.512 12.068 80.989 33.545l76.242 76.242c21.476 21.476 33.545 50.615 33.545 80.989z" fill="#bed8fb"/></g><path d="m169.311 504.5h-102.971c-13.158 0-24.129-10.064-25.263-23.172l-15.698-181.512h184.893l-15.698 181.511c-1.134 13.109-12.105 23.173-25.263 23.173z" fill="#617881"/><path d="m92.307 504.5h-25.97c-13.16 0-24.13-10.06-25.26-23.17l-15.7-181.51h46.63l7.78 181.51c.56 13.11 6 23.17 12.52 23.17z" fill="#475959"/><path d="m133.897 227.988h-32.142c-8.755 0-15.853 7.098-15.853 15.853v38.684h63.848v-38.685c0-8.755-7.098-15.852-15.853-15.852z" fill="#617881"/><path d="m123.702 227.991c-8.76 0-15.86 7.1-15.86 15.85v38.68h-21.94v-38.68c0-8.75 7.09-15.85 15.85-15.85z" fill="#475959"/><path d="m204.373 312.79h-173.094c-13.133 0-23.779-10.646-23.779-23.779 0-13.133 10.646-23.779 23.779-23.779h173.094c13.133 0 23.779 10.646 23.779 23.779-.001 13.133-10.647 23.779-23.779 23.779z" fill="#80b4fb"/><path d="m88.64 312.791h-57.36c-13.14 0-23.78-10.65-23.78-23.78 0-6.57 2.66-12.51 6.96-16.81 4.31-4.31 10.25-6.97 16.82-6.97h57.36c-6.57 0-12.51 2.66-16.81 6.97-4.3 4.3-6.96 10.24-6.96 16.81 0 13.13 10.64 23.78 23.77 23.78z" fill="#5ea5ec"/></g><g><path d="m512 198.268c-.002-32.595-12.695-63.238-35.742-86.284l-76.242-76.242c-23.046-23.047-53.689-35.74-86.284-35.742-.001 0-.001 0-.002 0h-.006-176.694c-26.12 0-47.37 21.254-47.37 47.38v176.49c-6.744 4.1-11.258 11.518-11.258 19.971v13.89h-47.122c-8.362 0-16.217 3.258-22.107 9.161-5.915 5.9-9.173 13.755-9.173 22.118 0 13.052 8.038 24.256 19.42 28.938l14.187 164.026c1.476 17.118 15.548 30.026 32.733 30.026h70.69 32.28 295.32c26.12 0 47.37-21.254 47.37-47.38v-182.61c0-4.142-3.358-7.5-7.5-7.5s-7.5 3.358-7.5 7.5v182.61c0 17.854-14.521 32.38-32.37 32.38h-267.681c2.805-4.369 4.615-9.473 5.093-15.023l14.186-164.007c3.794-1.553 7.279-3.859 10.266-6.847 5.905-5.905 9.157-13.758 9.157-22.113 0-17.248-14.032-31.28-31.28-31.28h-47.12v-13.89c0-12.877-10.476-23.353-23.353-23.353h-29.238v-173.107c0-17.854 14.521-32.38 32.37-32.38h159.826c31.326 0 56.812 25.486 56.812 56.812v39.143c0 26.124 21.253 47.377 47.377 47.377h39.143c31.326 0 56.812 25.486 56.812 56.812v33.306c0 4.142 3.358 7.5 7.5 7.5s7.5-3.358 7.5-7.5v-50.174-.006s0-.001 0-.002zm-291.35 90.742c0 4.349-1.691 8.435-4.763 11.507-3.078 3.078-7.168 4.773-11.517 4.773h-115.73c-4.142 0-7.5 3.358-7.5 7.5s3.358 7.5 7.5 7.5h112.331l-13.873 160.396c-.802 9.3-8.449 16.314-17.788 16.314h-32.28-70.69c-9.339 0-16.986-7.014-17.788-16.316l-13.873-160.394h20.4c4.142 0 7.5-3.358 7.5-7.5s-3.358-7.5-7.5-7.5h-23.8c-8.977 0-16.28-7.303-16.28-16.28 0-4.349 1.693-8.434 4.779-11.512 3.067-3.074 7.151-4.768 11.5-4.768h173.09c8.979 0 16.282 7.303 16.282 16.28zm-78.4-45.17v13.89h-48.848v-13.89c0-4.606 3.747-8.353 8.353-8.353h32.142c4.605 0 8.353 3.747 8.353 8.353zm297.938-100.508h-39.143c-17.853 0-32.377-14.524-32.377-32.377v-39.143c0-20.268-8.438-38.599-21.987-51.669 15.941 5.137 30.545 14.021 42.729 26.205l76.242 76.242c12.184 12.184 21.068 26.788 26.205 42.729-13.07-13.549-31.401-21.987-51.669-21.987z"/><path d="m437.172 225.5h-267.689c-4.142 0-7.5 3.358-7.5 7.5s3.358 7.5 7.5 7.5h267.688c4.142 0 7.5-3.358 7.5-7.5s-3.357-7.5-7.499-7.5z"/><path d="m437.172 265.395h-190.398c-4.142 0-7.5 3.358-7.5 7.5s3.358 7.5 7.5 7.5h190.398c4.142 0 7.5-3.358 7.5-7.5s-3.358-7.5-7.5-7.5z"/><path d="m437.172 305.29h-190.398c-4.142 0-7.5 3.358-7.5 7.5s3.358 7.5 7.5 7.5h190.398c4.142 0 7.5-3.358 7.5-7.5s-3.358-7.5-7.5-7.5z"/><path d="m264.655 129.846c4.142 0 7.5-3.358 7.5-7.5s-3.358-7.5-7.5-7.5h-100.172c-4.142 0-7.5 3.358-7.5 7.5s3.358 7.5 7.5 7.5z"/></g></g></svg>