<svg id="Capa_1" enable-background="new 0 0 511.996 511.996" height="512" viewBox="0 0 511.996 511.996" width="512" xmlns="http://www.w3.org/2000/svg"><g><g><g><path d="m414.838 198.269v266.345c0 22.03-17.85 39.879-39.869 39.879h-327.594c-18.82 0-34.589-13.04-38.78-30.579l-.16-22.8-.93-135.778v-267.955c0-22.03 17.85-39.879 39.869-39.879h176.697c15.88 0 67.309 43.849 112.768 90.028 41.48 42.15 77.999 86.239 77.999 100.739z" fill="#ddeafb"/><path d="m414.838 198.269v97.568c0-.11-.01-.22-.01-.34-3-119.718-100.518-125.258-132.408-157.147l54.419-40.819c41.48 42.149 77.999 86.238 77.999 100.738z" fill="#cbe2ff"/><path d="m224.066 7.502h-97.568c.11 0 .22.01.34.01 119.718 3 125.258 100.518 157.147 132.408l40.819-54.419c-42.149-41.48-86.238-77.999-100.738-77.999z" fill="#cbe2ff"/><path d="m414.838 198.274v16.868c0-35.513-28.798-64.311-64.311-64.311h-39.142c-22.019 0-39.876-17.858-39.876-39.876v-39.142c0-35.513-28.798-64.311-64.311-64.311h16.868c30.373 0 59.511 12.068 80.987 33.544l76.241 76.241c21.475 21.476 33.544 50.615 33.544 80.987z" fill="#bed8fb"/></g><g><circle cx="235.566" cy="301.795" fill="#f1d333" r="139.316"/><path d="m315.995 359.006c-31.6 44.419-93.218 54.819-137.638 23.22-12.75-9.07-22.7-20.62-29.659-33.519-6.19-11.49-10.01-24.06-11.32-36.909-1.17-11.43-.36-23.08 2.53-34.4 2.91-11.47 7.96-22.599 15.23-32.819.99-1.4 2.02-2.76 3.07-4.09 32.39-40.939 91.548-49.729 134.568-19.12 44.418 31.599 54.818 93.218 23.219 137.637z" fill="#b9e4ef"/><path d="m173.641 415.319c21.735 15.459 46.402 23.798 71.206 25.471-30.943 2.1-62.791-6.088-90.036-25.471-62.691-44.603-77.369-131.582-32.767-194.273 29.132-40.955 76.351-61.42 123.067-58.25-40.263 2.704-79.03 22.805-104.249 58.25-44.59 62.691-29.924 149.671 32.779 194.273z" fill="#eab14d"/><path d="m315.995 359.007c-21.597 30.364-57.206 44.829-91.772 40.854 26.83-3.094 52.301-17.107 69.181-40.854 31.61-44.414 21.207-106.036-23.207-137.632-14.05-10-29.823-15.798-45.823-17.635 23.358-2.679 47.747 2.931 68.401 17.635 44.427 31.596 54.816 93.218 23.22 137.632z" fill="#fff"/><path d="m464.959 409.783c42.205 30.022 46.459 57.757 32.062 77.996s-41.992 25.318-84.197-4.704-64.749-70.767-50.352-91.006c14.397-20.24 60.282-12.309 102.487 17.714z" fill="#c67d66"/><path d="m497.024 487.783c-14.396 20.238-41.996 25.312-84.2-4.709s-64.744-70.762-50.349-91c-5.731 8.057 23.835 38.922 66.039 68.943s62.779 34.823 68.51 26.766z" fill="#aa593d"/><path d="m366.66 345.403-46.897 65.928c-9.226 12.97-6.191 30.964 6.779 40.19 12.97 9.226 30.964 6.191 40.19-6.779l46.897-65.928c9.226-12.97 6.191-30.964-6.779-40.19-12.971-9.226-30.964-6.191-40.19 6.779z" fill="#c67d66"/><path d="m370.034 425.538c7.271-1.218 14.072-5.222 18.69-11.715l-21.994 30.919c-4.612 6.484-11.413 10.488-18.69 11.715-7.277 1.228-15.015-.324-21.499-4.936-12.967-9.224-16.003-27.222-6.779-40.189l21.994-30.919c-9.231 12.977-6.188 30.965 6.779 40.189 6.484 4.612 14.222 6.164 21.499 4.936z" fill="#aa593d"/><g fill="#617881"><path d="m289.865 258.948c0 10.19-8.26 18.45-18.46 18.45h-131.497c2.91-11.47 7.96-22.599 15.23-32.819.99-1.4 2.02-2.76 3.07-4.09h113.198c5.1 0 9.71 2.07 13.05 5.41 3.339 3.339 5.409 7.959 5.409 13.049z"/><path d="m289.865 330.247c0 10.2-8.26 18.46-18.46 18.46h-122.708c-6.19-11.49-10.01-24.06-11.32-36.909h134.028c5.1 0 9.71 2.06 13.05 5.4 3.34 3.339 5.41 7.959 5.41 13.049z"/></g></g></g><g><path d="m96.918 232.998c0-4.142-3.357-7.5-7.5-7.5h-39.589c-4.143 0-7.5 3.358-7.5 7.5s3.357 7.5 7.5 7.5h39.589c4.143 0 7.5-3.358 7.5-7.5z"/><path d="m49.829 280.388h24.42c4.143 0 7.5-3.358 7.5-7.5s-3.357-7.5-7.5-7.5h-24.42c-4.143 0-7.5 3.358-7.5 7.5s3.358 7.5 7.5 7.5z"/><path d="m49.829 320.287h21.86c4.143 0 7.5-3.358 7.5-7.5s-3.357-7.5-7.5-7.5h-21.86c-4.143 0-7.5 3.358-7.5 7.5s3.358 7.5 7.5 7.5z"/><path d="m49.829 360.176h31.04c4.143 0 7.5-3.358 7.5-7.5s-3.357-7.5-7.5-7.5h-31.04c-4.143 0-7.5 3.358-7.5 7.5s3.358 7.5 7.5 7.5z"/><path d="m157.497 122.346c0-4.142-3.357-7.5-7.5-7.5h-100.17c-4.143 0-7.5 3.358-7.5 7.5s3.357 7.5 7.5 7.5h100.17c4.143 0 7.5-3.358 7.5-7.5z"/><path d="m509.313 450.013c-5.394-15.705-18.854-31.298-40.007-46.346-15.186-10.798-31.579-19.276-47.123-24.46 3.784-7.057 5.129-15.115 3.776-23.139-.646-3.827-1.881-7.456-3.626-10.8l.005-146.993c0-32.598-12.693-63.243-35.741-86.291l-76.241-76.241c-23.048-23.048-53.692-35.741-86.289-35.741h-.001-176.697c-26.119 0-47.369 21.254-47.369 47.379l.6 354.926c.028 4.124 3.381 7.448 7.499 7.448h.053c4.142-.029 7.476-3.41 7.448-7.552l-.6-354.822c0-17.854 14.521-32.379 32.37-32.379h159.828c31.326 0 56.811 25.485 56.811 56.811v39.142c0 26.124 21.253 47.377 47.376 47.377h39.142c31.261 0 56.702 25.382 56.807 56.619v115.169c-7.078-3.821-15.171-5.184-23.23-3.825-1.328.224-2.63.525-3.908.886 6.307-35.806-.868-72.86-20.595-104.005-2.216-3.499-6.851-4.539-10.348-2.323-3.5 2.216-4.54 6.85-2.323 10.349 20.413 32.229 25.863 71.499 15.057 107.98-.494.609-.978 1.229-1.436 1.874l-46.898 65.928c-.457.642-.883 1.3-1.294 1.963-45.784 32.839-107.153 33.014-153.191.267-59.231-42.141-73.14-124.606-31.005-183.829 20.404-28.691 50.761-47.717 85.479-53.573 34.714-5.855 69.641 2.159 98.338 22.568 5.286 3.761 10.308 7.913 14.926 12.342 2.99 2.867 7.737 2.768 10.604-.222s2.768-7.737-.222-10.604c-5.143-4.933-10.732-9.555-16.614-13.739-31.961-22.732-70.86-31.659-109.527-25.136-38.669 6.522-72.482 27.714-95.207 59.669-46.932 65.961-31.44 157.81 34.531 204.747 25.559 18.18 55.36 27.253 85.143 27.253 24.609 0 49.202-6.205 71.374-18.58.078 1.321.221 2.644.444 3.967 1.614 9.567 6.856 17.932 14.761 23.555 6.373 4.533 13.721 6.712 21.004 6.712 9.902 0 19.68-4.032 26.713-11.648 8.349 10.843 19.058 21.484 31.195 30.985-6.033 8.227-15.75 13.313-26.141 13.313h-327.595c-3.741 0-7.404-.631-10.888-1.874-12.139-4.336-20.358-16.239-20.449-29.619l-.203-29.747c-.028-4.125-3.381-7.449-7.499-7.449-.017 0-.035 0-.052 0-4.143.028-7.477 3.409-7.449 7.551l.203 29.747c.135 19.657 12.352 37.196 30.404 43.642 5.106 1.824 10.467 2.748 15.932 2.748h327.594c15.223 0 29.475-7.444 38.298-19.506 21.415 14.293 38.471 19.263 51.832 19.262 20.784-.001 32.633-12.016 38.042-19.622 9.109-12.803 11.245-27.366 6.179-42.114zm-158.787-306.681h-39.142c-17.852 0-32.376-14.524-32.376-32.377v-39.142c0-20.267-8.437-38.598-21.987-51.668 15.941 5.137 30.544 14.021 42.728 26.205l76.241 76.241c12.184 12.184 21.069 26.788 26.205 42.729-13.07-13.55-31.402-21.988-51.669-21.988zm-19.637 302.077c-4.642-3.301-7.719-8.211-8.666-13.826-.947-5.616.35-11.264 3.65-15.905l46.898-65.928c4.154-5.839 10.73-8.954 17.402-8.954 4.274 0 8.589 1.279 12.329 3.94 4.642 3.301 7.719 8.211 8.666 13.826.947 5.616-.35 11.264-3.65 15.905l-46.898 65.928c-6.816 9.579-20.152 11.828-29.731 5.014zm160.024 38.024c-6.886 9.68-15.962 13.282-25.661 13.281-16.921-.001-35.734-10.965-48.084-19.748-15.368-10.934-28.657-23.884-37.929-36.871l34.102-47.941c15.296 4.493 31.889 12.799 47.27 23.735 19.43 13.822 49.201 40.976 30.302 67.544z"/><path d="m297.126 215.254c-23.117-16.444-51.25-22.9-79.224-18.182-27.972 4.719-52.433 20.048-68.876 43.163-16.444 23.115-22.901 51.251-18.183 79.224 4.719 27.972 20.048 52.433 43.163 68.876 18.181 12.933 39.465 19.688 61.334 19.688 5.936 0 11.918-.498 17.89-1.505 27.972-4.718 52.433-20.047 68.876-43.163 33.945-47.719 22.738-114.156-24.98-148.101zm-135.173 32.734h109.452c2.924 0 5.675 1.141 7.746 3.212 2.072 2.073 3.214 4.824 3.214 7.747 0 6.038-4.917 10.95-10.96 10.95h-121.299c2.758-7.351 6.47-14.399 11.142-20.968.228-.32.473-.624.705-.941zm-15.867 71.309h125.319c2.93 0 5.681 1.138 7.746 3.204 2.072 2.072 3.214 4.823 3.214 7.746 0 6.043-4.917 10.96-10.96 10.96h-118.106c-3.289-6.892-5.717-14.238-7.213-21.91zm163.797 35.363c-14.121 19.851-35.126 33.015-59.148 37.066-24.02 4.052-48.184-1.493-68.034-15.614-7.902-5.621-14.724-12.347-20.353-19.906h109.058c14.314 0 25.96-11.645 25.96-25.96 0-6.93-2.701-13.448-7.606-18.352-4.898-4.899-11.417-7.598-18.353-7.598h-127.01c-.193-6.546.318-13.041 1.513-19.4h125.495c14.314 0 25.96-11.641 25.96-25.949 0-6.929-2.701-13.447-7.606-18.353-4.905-4.905-11.424-7.606-18.353-7.606h-95.727c12.541-10.956 27.883-18.286 44.718-21.126 5.13-.865 10.264-1.292 15.363-1.292 18.779 0 37.06 5.802 52.671 16.906 40.978 29.151 50.602 86.205 21.452 127.184z"/></g></g></svg>