<svg id="Capa_1" enable-background="new 0 0 512 512" height="512" viewBox="0 0 512 512" width="512" xmlns="http://www.w3.org/2000/svg"><g><g><g><path d="m504.5 198.27v266.35c0 22.03-17.85 39.88-39.87 39.88h-327.6c-18.82 0-34.59-13.04-38.78-30.58l-.16-22.8-.93-135.78v-267.96c0-22.03 17.85-39.88 39.87-39.88h176.7c15.88 0 67.31 43.85 112.77 90.03 41.48 42.15 78 86.24 78 100.74z" fill="#ddeafb"/><path d="m504.5 198.27v97.57c0-.11-.01-.22-.01-.34-3-119.72-100.52-125.26-132.41-157.15l54.42-40.82c41.48 42.15 78 86.24 78 100.74z" fill="#cbe2ff"/><path d="m313.725 7.5h-97.57c.11 0 .22.01.34.01 119.72 3 125.26 100.52 157.15 132.41l40.82-54.42c-42.15-41.48-86.24-78-100.74-78z" fill="#cbe2ff"/><path d="m504.5 198.276v16.868c0-35.514-28.798-64.312-64.312-64.312h-39.143c-22.019 0-39.877-17.858-39.877-39.877v-39.143c0-35.514-28.798-64.312-64.312-64.312h16.868c30.373 0 59.512 12.068 80.989 33.545l76.242 76.242c21.476 21.476 33.545 50.615 33.545 80.989z" fill="#bed8fb"/></g><path d="m215.15 372.36v112.571c0 10.808-8.761 19.569-19.569 19.569h-168.512c-10.808 0-19.569-8.761-19.569-19.569v-168.512c0-10.808 8.761-19.569 19.569-19.569h112.571z" fill="#617881"/><path d="m67.812 364.994h52.531c10.658 0 19.298-8.64 19.298-19.298v-48.846h-91.127v48.847c0 10.658 8.64 19.297 19.298 19.297z" fill="#bed8fb"/><path d="m155.004 463.427h-87.358c-10.566 0-19.132-8.566-19.132-19.132v-26.914c0-10.566 8.566-19.132 19.132-19.132h87.358c10.566 0 19.132 8.566 19.132 19.132v26.914c0 10.566-8.565 19.132-19.132 19.132z" fill="#f1d333"/></g><g><path d="m512 198.276c0-32.599-12.693-63.244-35.742-86.292l-76.242-76.242c-23.048-23.049-53.693-35.742-86.292-35.742h-.004-176.7c-26.12 0-47.37 21.254-47.37 47.38v241.97h-62.58c-14.926 0-27.07 12.144-27.07 27.07v14.5c0 4.142 3.358 7.5 7.5 7.5s7.5-3.358 7.5-7.5v-14.5c0-6.655 5.415-12.07 12.07-12.07h13.944v41.347c0 14.776 12.021 26.798 26.798 26.798h52.531c14.776 0 26.798-12.021 26.798-26.798v-30.74l60.51 60.51v109.463c0 6.655-5.415 12.07-12.07 12.07h-168.511c-6.655 0-12.07-5.415-12.07-12.07v-120.45c0-4.142-3.358-7.5-7.5-7.5s-7.5 3.358-7.5 7.5v120.45c0 14.926 12.144 27.07 27.07 27.07h437.55c26.12 0 47.37-21.254 47.37-47.38zm-122.591-151.928 76.242 76.242c12.184 12.184 21.068 26.788 26.205 42.729-13.07-13.549-31.401-21.987-51.669-21.987h-39.143c-17.853 0-32.377-14.524-32.377-32.377v-39.143c0-20.268-8.438-38.599-21.987-51.669 15.942 5.137 30.545 14.021 42.729 26.205zm-269.066 311.147h-52.531c-6.505 0-11.798-5.292-11.798-11.798v-41.347h76.126v41.347c0 6.505-5.292 11.798-11.797 11.798zm344.277 139.505h-244.82c1.82-3.637 2.85-7.734 2.85-12.07v-112.57c0-1.989-.79-3.897-2.197-5.303l-75.51-75.51c-1.406-1.407-3.314-2.197-5.303-2.197h-34.99v-241.97c0-17.854 14.521-32.38 32.37-32.38h159.836c31.326 0 56.812 25.486 56.812 56.812v39.143c0 26.124 21.253 47.377 47.377 47.377h39.143c31.203 0 56.604 25.289 56.803 56.446v249.842c-.001 17.855-14.522 32.38-32.371 32.38z"/><path d="m429.44 225.5h-25.49c-4.142 0-7.5 3.358-7.5 7.5s3.358 7.5 7.5 7.5h25.49c4.142 0 7.5-3.358 7.5-7.5s-3.358-7.5-7.5-7.5z"/><path d="m164.72 233c0 4.142 3.358 7.5 7.5 7.5h198.17c4.142 0 7.5-3.358 7.5-7.5s-3.358-7.5-7.5-7.5h-198.17c-4.142 0-7.5 3.358-7.5 7.5z"/><path d="m429.436 265.395h-257.217c-4.142 0-7.5 3.358-7.5 7.5s3.358 7.5 7.5 7.5h257.216c4.142 0 7.5-3.358 7.5-7.5s-3.357-7.5-7.499-7.5z"/><path d="m429.436 305.29h-235.934c-4.142 0-7.5 3.358-7.5 7.5s3.358 7.5 7.5 7.5h235.934c4.142 0 7.5-3.358 7.5-7.5s-3.358-7.5-7.5-7.5z"/><path d="m266.71 345.18h-41.284c-4.142 0-7.5 3.358-7.5 7.5s3.358 7.5 7.5 7.5h41.284c4.142 0 7.5-3.358 7.5-7.5s-3.358-7.5-7.5-7.5z"/><path d="m172.219 129.846h94.488c4.142 0 7.5-3.358 7.5-7.5s-3.358-7.5-7.5-7.5h-94.488c-4.142 0-7.5 3.358-7.5 7.5s3.358 7.5 7.5 7.5z"/><path d="m155.004 470.927c14.685 0 26.632-11.947 26.632-26.632v-26.914c0-14.685-11.947-26.632-26.632-26.632h-87.358c-14.685 0-26.632 11.947-26.632 26.632v26.914c0 14.685 11.947 26.632 26.632 26.632zm-98.99-26.633v-26.914c0-6.414 5.218-11.632 11.632-11.632h87.358c6.414 0 11.632 5.218 11.632 11.632v26.914c0 6.414-5.218 11.632-11.632 11.632h-87.358c-6.414.001-11.632-5.218-11.632-11.632z"/></g></g></svg>