<svg id="Capa_1" enable-background="new 0 0 512 512" height="512" viewBox="0 0 512 512" width="512" xmlns="http://www.w3.org/2000/svg"><g><g><g><path d="m503.595 198.27v266.35c0 22.03-17.85 39.88-39.87 39.88h-327.6c-18.82 0-34.59-13.04-38.78-30.58l-.16-22.8-.93-135.78v-267.96c0-22.03 17.85-39.88 39.87-39.88h176.7c15.88 0 67.31 43.85 112.77 90.03 41.48 42.15 78 86.24 78 100.74z" fill="#ddeafb"/><path d="m503.595 198.27v97.57c0-.11-.01-.22-.01-.34-3-119.72-100.52-125.26-132.41-157.15l54.42-40.82c41.48 42.15 78 86.24 78 100.74z" fill="#cbe2ff"/><path d="m312.82 7.5h-97.57c.11 0 .22.01.34.01 119.72 3 125.26 100.52 157.15 132.41l40.82-54.42c-42.15-41.48-86.24-78-100.74-78z" fill="#cbe2ff"/><path d="m503.594 198.276v16.868c0-35.514-28.798-64.312-64.312-64.312h-39.142c-22.019 0-39.877-17.858-39.877-39.877v-39.143c0-35.514-28.798-64.312-64.312-64.312h16.868c30.373 0 59.512 12.068 80.989 33.545l76.242 76.242c21.476 21.476 33.544 50.615 33.544 80.989z" fill="#bed8fb"/></g><g><circle cx="157.257" cy="355.646" fill="#78d0b1" r="148.847"/><path d="m163.382 504.372c-2.035.087-4.069.126-6.119.126-82.21 0-148.853-66.643-148.853-148.853 0-82.202 66.643-148.845 148.853-148.845 2.05 0 4.085.039 6.119.126-79.371 3.21-142.733 68.567-142.733 148.719 0 80.16 63.362 145.518 142.733 148.727z" fill="#61aab7"/><circle cx="157.257" cy="355.646" fill="#bed8fb" r="114.583"/><path d="m271.84 355.646c0 63.282-51.302 114.583-114.584 114.583-3.3 0-6.564-.138-9.792-.414 58.702-4.965 104.791-54.188 104.791-114.169s-46.089-109.204-104.791-114.169c3.228-.276 6.492-.414 9.792-.414 63.283-.001 114.584 51.301 114.584 114.583z" fill="#fff"/><circle cx="157.257" cy="355.646" fill="#78d0b1" r="11.913"/></g></g><g><path d="m436.266 225.5h-158.526c-4.143 0-7.5 3.358-7.5 7.5s3.357 7.5 7.5 7.5h158.526c4.143 0 7.5-3.358 7.5-7.5s-3.357-7.5-7.5-7.5z"/><path d="m436.266 265.395h-127.933c-4.143 0-7.5 3.358-7.5 7.5s3.357 7.5 7.5 7.5h127.933c4.143 0 7.5-3.358 7.5-7.5s-3.357-7.5-7.5-7.5z"/><path d="m436.266 305.29h-107.98c-4.143 0-7.5 3.358-7.5 7.5s3.357 7.5 7.5 7.5h107.98c4.143 0 7.5-3.358 7.5-7.5s-3.357-7.5-7.5-7.5z"/><path d="m377.501 345.185h-47.662c-4.143 0-7.5 3.358-7.5 7.5s3.357 7.5 7.5 7.5h47.662c4.143 0 7.5-3.358 7.5-7.5s-3.357-7.5-7.5-7.5z"/><path d="m263.75 114.846h-100.172c-4.143 0-7.5 3.358-7.5 7.5s3.357 7.5 7.5 7.5h100.172c4.143 0 7.5-3.358 7.5-7.5s-3.358-7.5-7.5-7.5z"/><path d="m95.609 302.046c-2.718 3.126-2.387 7.863.739 10.581l42.487 36.934c-.635 1.917-.991 3.958-.991 6.085 0 10.705 8.709 19.413 19.413 19.413s19.413-8.708 19.413-19.413c0-.745-.052-1.478-.134-2.201l21.224-11.889c3.614-2.024 4.902-6.595 2.878-10.209s-6.597-4.9-10.208-2.878l-21.239 11.898c-3.296-2.581-7.433-4.134-11.934-4.134-3.078 0-5.979.739-8.567 2.019l-42.5-36.946c-3.127-2.718-7.864-2.387-10.581.74zm66.061 53.6c0 2.434-1.979 4.413-4.413 4.413s-4.413-1.979-4.413-4.413 1.979-4.414 4.413-4.414 4.413 1.98 4.413 4.414z"/><path d="m151.022 264.72c3.671 5.566 12.525 3.579 13.635-2.931 1.132-6.638-6.761-11.217-12.014-7.147-3.076 2.383-3.744 6.851-1.621 10.078z"/><path d="m163.493 446.58c-3.564-5.539-12.306-3.639-13.591 2.69-.669 3.294 1.054 6.734 4.064 8.204 2.748 1.342 6.133.846 8.382-1.229 2.669-2.461 3.179-6.646 1.145-9.665z"/><path d="m103.472 277.46c3.782 5.527 12.643 3.612 13.656-3.063 1.019-6.715-7.145-11.207-12.288-6.807-2.861 2.446-3.428 6.735-1.368 9.87z"/><path d="m203.342 430.65c-3.346.626-5.852 3.608-6.031 6.983-.162 3.068 1.676 6.002 4.481 7.232 6.118 2.683 12.557-3.756 9.874-9.874-1.389-3.171-4.923-5.027-8.324-4.341z"/><path d="m81.833 305.23c-1.195-2.825-4.031-4.704-7.113-4.625-3.07.078-5.836 2.079-6.87 4.968-1.056 2.95-.121 6.332 2.298 8.323 2.519 2.073 6.201 2.246 8.915.445 2.929-1.946 4.14-5.859 2.77-9.111z"/><path d="m232.252 404.66c.706 3.402 3.691 5.94 7.175 6.026 2.868.071 5.593-1.561 6.876-4.125 1.382-2.762.923-6.172-1.175-8.446-2.199-2.384-5.789-3.076-8.721-1.698-3.107 1.459-4.769 4.894-4.155 8.243z"/><path d="m69.512 354.18c-1.204-6.432-9.994-8.102-13.58-2.7-1.772 2.669-1.65 6.237.312 8.769 2.043 2.636 5.71 3.598 8.788 2.321 3.258-1.352 5.184-4.926 4.48-8.39z"/><path d="m245.422 352.78c-1.228 2.903-.398 6.385 1.944 8.473 2.374 2.117 5.916 2.47 8.675.912 5.697-3.216 4.596-11.99-1.694-13.743-3.597-1.003-7.502.903-8.925 4.358z"/><path d="m115.942 433.84c-3.539-5.514-12.34-3.653-13.59 2.69-.621 3.152.888 6.403 3.667 7.988 2.7 1.539 6.169 1.212 8.537-.796 2.856-2.423 3.493-6.767 1.386-9.882z"/><path d="m210.102 267.99c-4.786-4.785-13.294-.936-12.776 5.854.253 3.315 2.739 6.168 6.017 6.806 2.892.563 5.925-.654 7.614-3.069 2.056-2.94 1.676-7.062-.855-9.591z"/><path d="m81.833 400.32c-1.22-2.885-4.154-4.766-7.297-4.614-3.137.152-5.89 2.314-6.802 5.311-.903 2.97.171 6.279 2.647 8.151 2.645 2 6.403 2.002 9.047 0 2.689-2.035 3.688-5.731 2.405-8.848z"/><path d="m246.533 305.23c-2.447-6.098-11.348-5.981-13.851 0-1.275 3.047-.319 6.721 2.283 8.757 2.425 1.898 5.833 2.124 8.478.553 3.147-1.869 4.517-5.923 3.09-9.31z"/><path d="m279.34 355.65c0-67.321-54.765-122.09-122.08-122.09-67.32 0-122.09 54.769-122.09 122.09 0 27.365 8.841 53.213 25.565 74.75 2.542 3.272 7.253 3.864 10.524 1.324 3.271-2.541 3.863-7.252 1.323-10.524-14.662-18.882-22.412-41.548-22.412-65.55 0-59.049 48.04-107.09 107.09-107.09 59.044 0 107.08 48.041 107.08 107.09 0 59.044-48.036 107.08-107.08 107.08-22.419 0-43.889-6.853-62.089-19.818-3.374-2.405-8.059-1.615-10.46 1.757-2.403 3.374-1.617 8.057 1.757 10.46 20.756 14.786 45.235 22.602 70.792 22.602 67.316-.001 122.08-54.766 122.08-122.081z"/><path d="m511.09 198.267c-.003-32.607-12.695-63.249-35.736-86.28l-76.242-76.252c-23.054-23.044-53.7-35.735-86.292-35.735h-176.699c-26.121 0-47.371 21.254-47.371 47.38v167.75c-51.966 25.438-87.84 78.863-87.84 140.516 0 86.052 69.881 156.084 155.874 156.341.167.008.327.013.474.013h306.462c26.12 0 47.37-21.254 47.37-47.38v-266.34-.01c0-.001 0-.002 0-.003zm-495.18 157.379c0-77.939 63.408-141.347 141.348-141.347s141.348 63.408 141.348 141.347-63.408 141.347-141.348 141.347-141.348-63.409-141.348-141.347zm480.18 108.974c0 17.854-14.521 32.38-32.37 32.38h-239.699c52.905-25.089 89.584-79.016 89.584-141.354 0-86.21-70.138-156.347-156.348-156.347-18.786 0-36.807 3.333-53.507 9.434v-161.353c0-17.854 14.521-32.38 32.37-32.38h159.83c31.325 0 56.811 25.485 56.811 56.81v39.14c0 18.584 10.944 35.536 27.883 43.185 3.779 1.706 8.219.025 9.922-3.749 1.705-3.775.027-8.217-3.748-9.922-11.576-5.228-19.057-16.813-19.057-29.514v-39.14c0-20.178-8.364-38.437-21.809-51.495 15.92 5.205 30.613 14.092 42.555 26.027l76.242 76.252c12.183 12.177 21.066 26.779 26.201 42.725-13.069-13.549-31.403-21.989-51.67-21.989h-22.36c-4.143 0-7.5 3.358-7.5 7.5s3.357 7.5 7.5 7.5h22.359c31.325 0 56.811 25.485 56.811 56.81z"/></g></g></svg>