<svg height="512pt" viewBox="0 -32 512.00107 512" width="512pt" xmlns="http://www.w3.org/2000/svg"><path d="m256.039062 72.535156c83.640626 0 151.566407 67.269532 152.632813 150.65625h-23.8125l56.355469 80.203125 29.003906-41.277343 27.351562-38.929688h-23.882812c-1.070312-119.289062-98.105469-215.660156-217.648438-215.660156-59.847656 0-114.050781 24.164062-153.398437 63.257812l45.96875 45.96875c27.582031-27.332031 65.53125-44.21875 107.429687-44.21875zm0 0" fill="#e2fc85"/><path d="m148.609375 116.753906-45.96875-45.96875zm0 0" fill="#96d1f3"/><path d="m409.441406 377.585938-22.984375-22.984376zm0 0" fill="#96d1f3"/><path d="m441.214844 303.394531 29.003906-41.277343zm0 0" fill="#96d1f3"/><path d="m363.472656 331.617188c-27.582031 27.332031-65.53125 44.21875-107.433594 44.21875-83.640624 0-151.566406-67.269532-152.632812-150.65625h23.8125l-20.914062-29.765626-35.441407-50.4375-29 41.28125-27.351562 38.921876h23.882812c1.070313 119.292968 98.101563 215.664062 217.644531 215.664062 59.851563 0 114.054688-24.160156 153.398438-63.257812l-22.984375-22.984376zm0 0" fill="#e2fc85"/><path d="m386.457031 354.601562-22.984375-22.984374zm0 0" fill="#96d1f3"/><path d="m70.863281 144.976562-29 41.277344v.003906zm0 0" fill="#96d1f3"/><path d="m299.761719 151.175781v36.617188c-10.722657 10.722656-16.734375 16.734375-27.457031 27.457031h-32.53125c-10.71875-10.722656-16.730469-16.734375-27.453126-27.457031v-36.617188c0-24.144531 19.574219-43.71875 43.71875-43.71875 24.148438 0 43.722657 19.574219 43.722657 43.71875zm0 0" fill="#f5d9ab"/><path d="m203.609375 263.390625v49.53125h104.863281v-49.53125 49.53125h32.121094v-79.671875c-7.03125-7.03125-10.972656-10.972656-18.003906-18h-133.101563c-7.027343 7.027344-10.96875 10.96875-18 18v79.671875h32.121094zm0 0" fill="#96d1f3"/><path d="m240.175781 215.25h31.730469v31.726562h-31.730469zm0 0" fill="#d15573"/><path d="m271.90625 246.976562h-31.730469l-2.0625 65.945313h35.855469zm0 0" fill="#d15573"/><g fill="#3ca6e6"><path d="m409.441406 377.585938-22.984375-22.984376zm0 0"/><path d="m441.214844 303.394531 29.003906-41.277343zm0 0"/><path d="m386.457031 354.601562-22.984375-22.984374zm0 0"/><path d="m70.863281 144.976562-29 41.277344v.003906zm0 0"/></g><path d="m132.632812 70.785156c36.03125-35.800781 84.527344-59.066406 138.40625-62.734375-4.957031-.335937-9.957031-.523437-15-.523437-59.847656 0-114.050781 24.164062-153.398437 63.261718l45.96875 45.964844c5.035156-4.988281 10.421875-9.625 16.105469-13.878906zm0 0" fill="#6ad34d"/><path d="m68.386719 225.179688h-23.886719l27.351562-38.921876 14.007813-19.9375-14.996094-21.34375-29 41.28125-27.351562 38.921876h23.882812c1.070313 119.292968 98.105469 215.664062 217.648438 215.664062 5.039062 0 10.035156-.183594 14.992187-.523438-112.558594-7.660156-201.625-100.878906-202.648437-215.140624zm0 0" fill="#6ad34d"/><path d="m242.308594 187.792969v-36.617188c0-18.875 11.96875-34.957031 28.726562-41.078125-4.675781-1.707031-9.726562-2.640625-14.996094-2.640625-24.144531 0-43.71875 19.574219-43.71875 43.71875v36.617188c10.722657 10.722656 16.734376 16.730469 27.453126 27.453125h29.992187c-10.722656-10.71875-16.734375-16.730469-27.457031-27.453125zm0 0" fill="#ffb680"/><path d="m219.480469 215.25h-29.992188c-7.027343 7.027344-10.972656 10.96875-18 18v79.671875h29.992188v-79.671875c7.027343-7.03125 10.96875-10.972656 18-18zm0 0" fill="#3ca6e6"/><path d="m240.175781 215.25h14.996094v31.726562h-14.996094zm0 0" fill="#c21d44"/><path d="m240.175781 246.976562-2.0625 65.945313h14.996094l2.0625-65.945313zm0 0" fill="#c21d44"/><path d="m276.035156 47.886719h-14.996094v-14.996094h14.996094zm-24.992187 0h-14.996094v-14.996094h14.996094zm0 0" fill="#fff"/><path d="m163.992188 230.144531v90.277344h184.097656v-90.277344l-22.390625-22.390625h-35.292969l16.851562-16.851562v-39.722656c0-28.242188-22.976562-51.21875-51.21875-51.21875-28.242187 0-51.214843 22.976562-51.214843 51.21875v39.722656l16.851562 16.851562h-35.292969zm81.855468 75.28125 1.59375-50.949219h17.195313l1.59375 50.949219zm18.5625-65.945312h-16.738281v-16.734375h16.738281zm68.683594-3.125v69.070312h-17.125v-42.035156h-14.996094v42.035156h-19.738281l-1.832031-58.574219v-24.105468h40.085937zm-113.277344-85.175781c0-19.972657 16.25-36.222657 36.222656-36.222657 19.972657 0 36.222657 16.25 36.222657 36.222657v33.507812l-23.0625 23.0625h-26.320313l-23.0625-23.0625zm12.859375 71.566406v24.101562l-1.828125 58.578125h-19.738281v-42.035156h-14.996094v42.035156h-17.128906v-69.070312l13.609375-13.609375zm0 0"/><path d="m358.195312 326.289062c-45.117187 44.710938-111.75 53.59375-165.402343 27.574219l-6.542969 13.488281c57.15625 27.722657 127.550781 19.515626 177.078125-25.277343l35.398437 35.402343c-38.949218 36.085938-89.324218 55.871094-142.683593 55.871094-114.847657 0-209.121094-93.414062-210.152344-208.234375l-.066406-7.429687h-16.878907l41.921876-59.667969 41.921874 59.667969h-16.972656l.097656 7.59375c.675782 52.851562 27.390626 101.929687 71.460938 131.285156l8.3125-12.480469c-37.832031-25.199219-61.554688-66.425781-64.488281-111.402343h30.453125l-70.789063-100.742188c-141.9375 201.996094-17.417969 24.792969-70.785156 100.742188h31.003906c4.910157 118.917968 102.671875 215.660156 224.957031 215.660156 59.863282 0 116.21875-23.238282 158.683594-65.4375l5.335938-5.300782-56.5625-56.566406zm0 0"/><path d="m480.996094 215.691406c-3.34375-79.75-48.296875-149.886718-115.609375-187.355468l-7.292969 13.101562c66 36.742188 107.417969 106.410156 108.09375 181.820312l.078125 7.429688h16.871094l-19.054688 27.117188c-21.5 30.605468-16.621093 23.65625-22.867187 32.550781l-41.921875-59.667969h16.972656l-.097656-7.59375c-.539063-42.335938-17.4375-82.054688-47.578125-111.835938-61.394532-60.65625-157.980469-60.90625-219.839844-4.960937l-35.398438-35.402344c62.796876-58.179687 152.179688-70.8281248 226.472657-38.488281l5.984375-13.75c-81.3125-35.394531-180.4375-20.769531-248.453125 46.8125l-5.335938 5.300781 5.320313 5.316407 45.964844 45.96875 5.28125 5.28125 5.300781-5.257813c27.359375-27.113281 63.640625-42.046875 102.152343-42.046875 76.472657 0 139.917969 60.183594 144.839844 135.660156h-30.449218l70.785156 100.746094 70.785156-100.746094zm0 0"/></svg>