<?xml version="1.0" encoding="iso-8859-1"?>
<!-- Generator: Adobe Illustrator 19.0.0, SVG Export Plug-In . SVG Version: 6.00 Build 0)  -->
<svg version="1.1" id="Layer_1" xmlns="http://www.w3.org/2000/svg" xmlns:xlink="http://www.w3.org/1999/xlink" x="0px" y="0px"
	 viewBox="0 0 512.001 512.001" style="enable-background:new 0 0 512.001 512.001;" xml:space="preserve">
<path style="fill:#E7ECED;" d="M321.964,378.55c14.227-28.024,43.329-47.101,76.85-47.101c47.64,0,86.227,38.587,86.227,86.227
	s-38.587,86.227-86.227,86.227s-86.227-38.587-86.227-86.227C312.587,403.556,316.036,390.299,321.964,378.55z"/>
<path style="fill:#FEDAAB;" d="M177.858,318.73c15.629,8.192,33.844,12.718,53.892,12.718s38.263-4.635,53.892-12.718v34.276
	c0,0-22.203,26.945-53.892,26.945s-53.892-26.945-53.892-26.945L177.858,318.73L177.858,318.73z"/>
<path style="fill:#4CBD91;" d="M398.814,503.902H26.961c0-15.09,0-26.945,0-26.945s0.97-58.958,102.395-91.616
	c0,0,36.755-19.185,48.503-32.335c0,0,22.203,26.945,53.892,26.945s53.892-26.945,53.892-26.945
	c7.329,8.3,24.466,18.755,36.323,25.545c-5.928,11.748-9.377,25.006-9.377,39.126C312.587,465.316,351.174,503.902,398.814,503.902z
	"/>
<path style="fill:#FEDAAB;" d="M285.641,318.73c-15.629,8.084-33.844,12.718-53.892,12.718s-38.263-4.527-53.892-12.718
	c-34.598-18-57.34-53.353-63.161-95.497c-16.706-2.263-33.844-18.108-33.844-31.903c0-14.874,14.443-21.557,32.335-21.557v-21.557
	c0,0,43.113,0,91.616-48.503c0,0,70.059,43.113,145.508,43.113v26.945c17.892,0,32.335,6.682,32.335,21.557
	c0,13.797-17.137,29.64-33.844,31.903C342.982,265.377,320.24,300.73,285.641,318.73z"/>
<path style="fill:#A67C52;" d="M204.803,99.714c-48.503,48.503-91.616,48.503-91.616,48.503v-5.389
	c0,0-5.605-134.729,118.562-134.729c123.951,0,118.562,134.729,118.562,134.729C274.863,142.827,204.803,99.714,204.803,99.714z"/>
<g>
	<path style="fill:#231F20;" d="M493.139,417.675c0-52.011-42.313-94.325-94.324-94.325c-32.83,0-62.688,16.69-79.835,44.071
		c-13.989-8.37-21.365-14.022-25.239-17.694v-26.213c32.68-18.787,55.046-52.405,62.205-93.531
		c18.607-5.311,34.799-22.685,34.799-38.652c0-16.221-12.185-26.993-32.334-29.225v-19.129c0.158-4.58,1.563-67.652-37.994-108.823
		C298.641,11.49,268.81,0,231.75,0c-37.158,0-67.044,11.514-88.826,34.221c-39.481,41.157-38.001,104.123-37.834,108.761v19.124
		c-20.151,2.232-32.335,13.004-32.335,29.225c0,15.967,16.194,33.339,34.799,38.652c7.162,41.134,29.533,74.756,62.206,93.533v26.19
		c-10.217,9.641-33.937,23.08-43.552,28.145c-105.062,34.093-107.3,96.338-107.343,98.975l-0.001,35.177h385.341v-0.158
		C453.716,509.039,493.139,467.877,493.139,417.675z M185.956,331.273c14.14,5.487,29.485,8.273,45.794,8.273
		c16.181,0,31.523-2.8,45.794-8.317v18.656c-5.531,5.782-23.048,21.968-45.794,21.968c-22.598,0-40.237-16.217-45.794-21.984
		L185.956,331.273L185.956,331.273z M154.681,45.36c18.604-19.352,44.534-29.164,77.069-29.164c32.442,0,58.322,9.793,76.918,29.107
		c27.707,28.774,32.611,71.659,33.422,89.244c-69.063-2.924-132.388-41.328-133.041-41.73l-5.447-3.351l-4.523,4.523
		c-33.19,33.19-63.757,42.509-77.815,45.119C121.43,125.901,124.183,77.083,154.681,45.36z M122.718,222.127l-0.841-6.092
		l-6.094-0.826c-11.717-1.587-26.833-13.452-26.833-23.879c0-12.488,18.552-13.459,24.237-13.459h8.098v-22.304
		c14.834-2.216,48.103-10.995,84.763-45.763c17.497,9.814,73.822,38.598,136.169,40.961l-0.005,27.105h8.098
		c5.686,0,24.236,0.971,24.236,13.459c0,10.427-15.116,22.292-26.833,23.879l-6.094,0.826l-0.841,6.092
		c-5.558,40.254-27.019,72.846-58.86,89.411c-15.155,7.839-32.035,11.813-50.172,11.813c-18.337,0-35.203-3.968-50.155-11.805
		C149.737,294.972,128.277,262.379,122.718,222.127z M35.058,495.804v-18.699c0.052-0.944,0.973-13.938,12.483-30.19
		c20.263-28.612,57.025-45.086,84.297-53.867l0.655-0.211l0.61-0.319c3.354-1.75,29.401-15.506,44.481-28.135
		c9.324,8.777,28.869,23.665,54.166,23.665c25.276,0,44.811-14.866,54.143-23.645c6.004,5.039,14.511,10.818,25.671,17.453
		c-4.695,11.431-7.076,23.445-7.076,35.819c0,32.466,16.488,61.153,41.531,78.129H35.058V495.804z M398.814,495.804
		c-43.081,0-78.129-35.049-78.129-78.129c0-12.349,2.861-24.281,8.505-35.468c13.364-26.314,40.041-42.662,69.624-42.662
		c43.08,0,78.128,35.049,78.128,78.129S441.895,495.804,398.814,495.804z"/>
	<polygon style="fill:#231F20;" points="406.912,363.783 390.716,363.783 390.716,409.577 344.922,409.577 344.922,425.773 
		390.716,425.773 390.716,471.567 406.912,471.567 406.912,425.773 452.705,425.773 452.705,409.577 406.912,409.577 	"/>
</g>
<g>
</g>
<g>
</g>
<g>
</g>
<g>
</g>
<g>
</g>
<g>
</g>
<g>
</g>
<g>
</g>
<g>
</g>
<g>
</g>
<g>
</g>
<g>
</g>
<g>
</g>
<g>
</g>
<g>
</g>
</svg>
